<svg xmlns="http://www.w3.org/2000/svg" width="114" height="114" viewBox="0 0 114 114">
  <circle id="Ellipse_80" data-name="Ellipse 80" cx="57" cy="57" r="57" fill="#fff"/>
  <g id="Group_109" data-name="Group 109" transform="translate(27.341 58.345) rotate(-30)">
    <path id="Path_98" data-name="Path 98" d="M3748.313,3326.084a6.671,6.671,0,1,0,6.671,6.671A6.679,6.679,0,0,0,3748.313,3326.084Zm0,10.707a4.036,4.036,0,1,1,4.036-4.036A4.041,4.041,0,0,1,3748.313,3336.791Z" transform="translate(-3735.125 -3319.567)" fill="#b8b9c4"/>
    <path id="Path_99" data-name="Path 99" d="M3716.719,3260.516h-23.7a13.314,13.314,0,0,0-4.309-5.865,13.072,13.072,0,0,0-7.933-2.751h-.131a13.188,13.188,0,1,0,8.015,23.661,13.309,13.309,0,0,0,4.357-5.9h6.113v4.6a3.04,3.04,0,0,0,3.036,3.036h2.473a3.04,3.04,0,0,0,3.036-3.036v-4.6h1.914v4.6a3.04,3.04,0,0,0,3.036,3.036H3715a3.04,3.04,0,0,0,3.036-3.036v-4.79a4.572,4.572,0,0,0-1.318-8.95Zm0,6.508a1.318,1.318,0,0,0-1.318,1.318v5.914a.4.4,0,0,1-.4.4h-2.374a.4.4,0,0,1-.4-.4v-5.914a1.318,1.318,0,0,0-1.318-1.318h-4.549a1.318,1.318,0,0,0-1.318,1.318v5.914a.4.4,0,0,1-.4.4h-2.473a.4.4,0,0,1-.4-.4v-5.914a1.318,1.318,0,0,0-1.318-1.318h-8.385a1.317,1.317,0,0,0-1.267.957,10.627,10.627,0,0,1-3.739,5.488,10.546,10.546,0,1,1-6.412-18.934h.1a10.454,10.454,0,0,1,6.346,2.2,10.634,10.634,0,0,1,3.7,5.458,1.318,1.318,0,0,0,1.267.957h24.655a1.936,1.936,0,0,1,0,3.873Z" transform="translate(-3667.458 -3251.9)" fill="#b8b9c4"/>
  </g>
</svg>
