<svg xmlns="http://www.w3.org/2000/svg" width="55" height="55" viewBox="0 0 55 55">
  <g id="instagram" transform="translate(-1335 -10065.5)">
    <rect id="Rectangle_100" class="circle" data-name="Rectangle 100" width="55" height="55" rx="27.5" transform="translate(1335 10065.5)"/>
    <g id="Group_107" class="icon" data-name="Group 107" transform="translate(59.5 1025.5)">
      <g id="instagram_1_" data-name="instagram (1)" transform="translate(1292 9056)">
        <g id="Group_34" data-name="Group 34">
          <g id="Group_33" data-name="Group 33">
            <path id="Path_9" data-name="Path 9" d="M16.1,0H5.961A5.968,5.968,0,0,0,0,5.961V16.1a5.968,5.968,0,0,0,5.961,5.961H16.1A5.968,5.968,0,0,0,22.063,16.1V5.961A5.968,5.968,0,0,0,16.1,0ZM20.28,16.1A4.184,4.184,0,0,1,16.1,20.28H5.961A4.184,4.184,0,0,1,1.782,16.1V5.961A4.184,4.184,0,0,1,5.961,1.782H16.1A4.184,4.184,0,0,1,20.28,5.961Z"/>
          </g>
        </g>
        <g id="Group_36" data-name="Group 36" transform="translate(6.127 6.04)">
          <g id="Group_35" data-name="Group 35">
            <path id="Path_10" data-name="Path 10" d="M152.027,144.393a4.946,4.946,0,1,0-4.9,5.674,5.014,5.014,0,0,0,.736-.055,4.947,4.947,0,0,0,4.168-5.619Zm-4.43,3.856a3.165,3.165,0,1,1,2.666-3.595A3.143,3.143,0,0,1,147.6,148.249Z" transform="translate(-142.185 -140.171)"/>
          </g>
        </g>
        <g id="Group_38" data-name="Group 38" transform="translate(15.717 4.563)">
          <g id="Group_37" data-name="Group 37">
            <path id="Path_11" data-name="Path 11" d="M366.262,106.154a.891.891,0,1,0,.261.63A.9.9,0,0,0,366.262,106.154Z" transform="translate(-364.741 -105.893)"/>
          </g>
        </g>
      </g>
    </g>
  </g>
</svg>
