<svg xmlns="http://www.w3.org/2000/svg" width="114" height="114" viewBox="0 0 114 114">
  <circle id="Ellipse_75" data-name="Ellipse 75" cx="57" cy="57" r="57" fill="#fff"/>
  <g id="Group_108" data-name="Group 108" transform="translate(43 33)">
    <path id="Path_96" data-name="Path 96" d="M3265.315,3158.271c1.921-2.562,4.551-6.071,4.551-11.916a14.249,14.249,0,0,0-28.5,0c0,5.844,2.63,9.353,4.552,11.917,1.1,1.464,1.964,2.62,1.964,3.645,0,.081,0,.162,0,.243a1.525,1.525,0,0,0-.508,1.136v9.436a8.238,8.238,0,0,0,16.476,0V3163.3a1.524,1.524,0,0,0-.508-1.136c0-.081,0-.161,0-.243C3263.349,3160.893,3264.216,3159.736,3265.315,3158.271Zm-14.578,3.5c-.058-1.906-1.207-3.439-2.533-5.209-1.774-2.366-3.981-5.311-3.981-10.2a11.394,11.394,0,0,1,22.788,0c0,4.893-2.207,7.838-3.981,10.2-1.326,1.768-2.475,3.3-2.533,5.208Zm-.3,3.059H3260.8v6.376h-10.358Zm5.179,13.066a5.186,5.186,0,0,1-4.947-3.631h9.894A5.186,5.186,0,0,1,3255.617,3177.893Z" transform="translate(-3241.368 -3132.106)" fill="#b8b9c4"/>
    <path id="Path_97" data-name="Path 97" d="M3373.822,3187.845a10.167,10.167,0,0,0-10.155-10.155,1.53,1.53,0,1,0,0,3.059,7.1,7.1,0,0,1,7.1,7.1,1.53,1.53,0,1,0,3.059,0Z" transform="translate(-3349.823 -3173.042)" fill="#b8b9c4"/>
  </g>
</svg>
