<?xml version="1.0" encoding="utf-8"?>
<!-- Generator: Adobe Illustrator 23.0.6, SVG Export Plug-In . SVG Version: 6.00 Build 0)  -->
<svg version="1.1"
   id="svg1884" inkscape:version="0.92.2 (5c3e80d, 2017-08-06)" sodipodi:docname="iventy_logo.svg" xmlns:cc="http://creativecommons.org/ns#" xmlns:dc="http://purl.org/dc/elements/1.1/" xmlns:inkscape="http://www.inkscape.org/namespaces/inkscape" xmlns:rdf="http://www.w3.org/1999/02/22-rdf-syntax-ns#" xmlns:sodipodi="http://sodipodi.sourceforge.net/DTD/sodipodi-0.dtd" xmlns:svg="http://www.w3.org/2000/svg"
   xmlns="http://www.w3.org/2000/svg" xmlns:xlink="http://www.w3.org/1999/xlink" x="0px" y="0px" viewBox="0 0 471.4 153.2"
   style="enable-background:new 0 0 471.4 153.2;" xml:space="preserve">
<style type="text/css">
  .st0{enable-background:new    ;}
  .st1{fill:#1E1E1E;}
  .st2{fill:#FF5555;}
  .st3{fill:#FFD97D;}
  .st4{fill:#A0CED9;}
  .st5{fill:#247BA0;}
</style>
<sodipodi:namedview  bordercolor="#666666" borderopacity="1.0" id="base" inkscape:current-layer="g2348" inkscape:cx="-74.285714" inkscape:cy="560" inkscape:document-units="mm" inkscape:pageopacity="0.0" inkscape:pageshadow="2" inkscape:window-height="1017" inkscape:window-maximized="1" inkscape:window-width="1920" inkscape:window-x="-8" inkscape:window-y="-8" inkscape:zoom="0.35" pagecolor="#ffffff" showgrid="false">
  </sodipodi:namedview>
<g id="g2348" transform="matrix(9.4836194,0,0,9.4836194,-603.21688,-6063.7495)" inkscape:export-xdpi="200" inkscape:export-ydpi="200">
  <g class="st0">
    <path class="st1" d="M65.1,642.2c-0.4,0-0.8-0.1-1-0.4c-0.3-0.3-0.4-0.6-0.4-1c0-0.4,0.1-0.7,0.4-1c0.3-0.3,0.6-0.4,1-0.4
      c0.4,0,0.7,0.1,1,0.4c0.3,0.3,0.4,0.6,0.4,1c0,0.4-0.1,0.7-0.4,1C65.8,642.1,65.5,642.2,65.1,642.2z M63.8,651.7v-8.1l2.6-0.4v8.5
      H63.8z"/>
    <path class="st1" d="M75.4,643.3h0.5l-3.7,8.4h-0.9l-3.7-8.4h2.7l2.5,5.8L75.4,643.3z"/>
    <path class="st1" d="M83.3,648.4c0.3,0,0.6,0.1,0.8,0.3c0.2,0.2,0.3,0.5,0.3,0.8c0,0.7-0.4,1.2-1.1,1.6c-0.7,0.4-1.6,0.7-2.6,0.7
      c-1.4,0-2.6-0.4-3.5-1.3c-0.9-0.8-1.4-1.9-1.4-3.1c0-1.2,0.4-2.3,1.3-3.1c0.9-0.8,1.9-1.2,3.2-1.2c1.2,0,2.2,0.4,3,1.2
      c0.8,0.8,1.2,1.7,1.2,2.9h-6c0,1.4,0.3,2.4,0.8,3.1c0.5,0.7,1.2,1,2.2,1c0.8,0,1.4-0.2,1.8-0.6h-0.1c-0.3,0-0.6-0.1-0.9-0.3
      c-0.2-0.2-0.3-0.5-0.3-0.9c0-0.3,0.1-0.6,0.4-0.8C82.6,648.5,82.9,648.4,83.3,648.4z M80.4,643.4c-0.5,0-1,0.3-1.3,1
      c-0.3,0.6-0.5,1.5-0.5,2.5h3.6c0-1.1-0.2-1.9-0.5-2.5C81.3,643.7,80.9,643.4,80.4,643.4z"/>
    <path class="st1" d="M91.7,643.1c0.8,0,1.5,0.3,2.1,0.8c0.5,0.5,0.8,1.2,0.8,2v5.8H92v-6.4c0-0.4-0.1-0.7-0.4-1
      c-0.2-0.3-0.6-0.4-0.9-0.4c-0.4,0-0.8,0.1-1.1,0.4c-0.4,0.3-0.6,0.6-0.8,1.1v6.3h-2.6v-8.1l2.6-0.4v1.5c0.3-0.5,0.7-0.9,1.2-1.1
      C90.5,643.2,91,643.1,91.7,643.1z"/>
    <path class="st1" d="M101.5,650.4l0.3,0.2c-0.1,0.4-0.4,0.7-0.8,0.9c-0.5,0.2-1,0.4-1.6,0.4c-0.8,0-1.4-0.2-1.9-0.6
      c-0.5-0.4-0.8-1-0.8-1.6v-6h-1v-0.3h1v-1.8l2.6-0.6v2.4h2.2v0.3h-2.2v6.4c0,0.4,0.1,0.7,0.3,0.9c0.2,0.2,0.5,0.3,0.8,0.3
      c0.2,0,0.5-0.1,0.7-0.2C101.2,650.8,101.4,650.6,101.5,650.4z"/>
    <path class="st1" d="M109.8,643.3h0.5l-4.8,11.1c-0.4,0.8-1,1.2-1.8,1.2c-0.4,0-0.8-0.1-1.1-0.4c-0.3-0.3-0.5-0.6-0.5-1
      c0-0.3,0.1-0.6,0.4-0.8c0.2-0.2,0.5-0.3,0.9-0.3c0.3,0,0.6,0.1,0.8,0.3c0.2,0.2,0.3,0.5,0.3,0.8c0,0.5-0.2,0.9-0.7,1.1
      c0.6,0,1.1-0.3,1.3-0.9l1-2.3l-3.9-8.8h2.7l2.5,5.7L109.8,643.3z"/>
  </g>
  
    <path id="path855-91-4-6" inkscape:connector-curvature="0" inkscape:export-xdpi="200" inkscape:export-ydpi="200" class="st2" d="
    M64.3,642.2c-0.4-0.3-0.7-0.8-0.7-1.3c0-1.3,1.6-2,2.6-1.1c0.4,0.3,0.5,0.7,0.5,1.3c0,0.5-0.3,1-0.8,1.2
    C65.5,642.5,64.7,642.5,64.3,642.2L64.3,642.2z"/>
  
    <path id="path855-3-8-1-7" inkscape:connector-curvature="0" inkscape:export-xdpi="200" inkscape:export-ydpi="200" class="st3" d="
    M82.3,650.5c-0.4-0.3-0.7-0.8-0.7-1.3c0-1.3,1.6-2,2.6-1.1c0.4,0.3,0.5,0.7,0.5,1.3c0,0.5-0.3,1-0.8,1.2
    C83.5,650.8,82.7,650.8,82.3,650.5z"/>
  
    <path id="path855-7-6-1-6" inkscape:connector-curvature="0" inkscape:export-xdpi="200" inkscape:export-ydpi="200" class="st4" d="
    M102.3,655.2c-0.4-0.3-0.7-0.8-0.7-1.3c0-1.3,1.6-2,2.6-1.1c0.4,0.3,0.5,0.7,0.5,1.3c0,0.5-0.3,1-0.8,1.2
    C103.5,655.4,102.8,655.4,102.3,655.2z"/>
  
    <path id="path855-4-6-5-80" inkscape:connector-curvature="0" inkscape:export-xdpi="200" inkscape:export-ydpi="200" class="st5" d="
    M110.9,651.4c-0.4-0.3-0.7-0.8-0.7-1.3c0-1.3,1.6-2,2.6-1.1c0.4,0.3,0.5,0.7,0.5,1.3c0,0.5-0.3,1-0.8,1.2
    C112.1,651.7,111.4,651.7,110.9,651.4z"/>
</g>
</svg>
