<svg xmlns="http://www.w3.org/2000/svg" width="24.054" height="24" viewBox="0 0 24.054 24">
  <g id="call-answer" transform="translate(0 -0.394)">
    <g id="Group_81" data-name="Group 81" transform="translate(0 0.394)">
      <g id="Group_80" data-name="Group 80">
        <path id="Path_64" data-name="Path 64" d="M23.515,19.376,19.8,15.661a1.937,1.937,0,0,0-2.731.051L15.2,17.584l-.369-.205a18.624,18.624,0,0,1-4.5-3.256,18.728,18.728,0,0,1-3.262-4.51c-.069-.125-.136-.246-.2-.361L8.119,8l.618-.618a1.935,1.935,0,0,0,.05-2.731L5.071.933A1.935,1.935,0,0,0,2.34.984L1.293,2.037l.029.028A6.054,6.054,0,0,0,.459,3.587,6.309,6.309,0,0,0,.076,5.131C-.415,9.2,1.443,12.914,6.486,17.957c6.971,6.971,12.589,6.444,12.831,6.418a6.277,6.277,0,0,0,1.548-.389,6.034,6.034,0,0,0,1.516-.859l.023.02,1.061-1.039A1.939,1.939,0,0,0,23.515,19.376Z" transform="translate(0 -0.394)" fill="#f55"/>
      </g>
    </g>
  </g>
</svg>
