<svg xmlns="http://www.w3.org/2000/svg" width="114" height="114" viewBox="0 0 114 114">
  <g id="Group_110" data-name="Group 110" transform="translate(-903 -6574)">
    <circle id="Ellipse_79" data-name="Ellipse 79" cx="57" cy="57" r="57" transform="translate(903 6574)" fill="#fff"/>
    <g id="Group_107" data-name="Group 107" transform="translate(937 6609)">
      <path id="Path_95" data-name="Path 95" d="M2563.466,3207.568a4.586,4.586,0,0,0-3.417-7.647h-8.906a29.646,29.646,0,0,0,1.258-7.751v-1.529a6.126,6.126,0,0,0-6.118-6.118h-1.529a1.529,1.529,0,0,0-1.484,1.158l-.833,3.333c-1.161,4.642-4.833,9.76-8.646,10.738a4.46,4.46,0,0,0-4.158-2.862h-6.351a4.458,4.458,0,0,0-4.453,4.453v21.625a4.458,4.458,0,0,0,4.453,4.453h6.351a4.459,4.459,0,0,0,4.032-2.565l5.192,1.731a16.79,16.79,0,0,0,5.321.864h12.813a118.74,118.74,0,0,1,7.648-10.707,4.579,4.579,0,0,1,0-6.118A4.573,4.573,0,0,0,2563.466,3207.568Zm-32.439,15.4a1.4,1.4,0,0,1-1.394,1.394h-6.351a1.4,1.4,0,0,1-1.394-1.394v-21.625a1.4,1.4,0,0,1,1.394-1.394h6.351a1.4,1.4,0,0,1,1.394,1.394Zm25.963-13.872h3.059a1.53,1.53,0,0,1,0,3.059h-3.059a1.53,1.53,0,1,0,0,3.059h3.059a1.53,1.53,0,0,1,0,3.059h-3.059a1.53,1.53,0,0,0,0,3.059,1.53,1.53,0,0,1,0,3.059h-12.813a13.737,13.737,0,0,1-4.354-.707l-5.737-1.912v-18.948a12.352,12.352,0,0,0,6.829-4.454,22.313,22.313,0,0,0,4.49-8.615l.543-2.175h.335a3.063,3.063,0,0,1,3.059,3.059v1.529a24.205,24.205,0,0,1-1.464,7.751h-1.968a1.53,1.53,0,1,0,0,3.059h14.139a1.53,1.53,0,1,1,0,3.059h-3.059a1.53,1.53,0,1,0,0,3.059Z" transform="translate(-2518.828 -3184.523)" fill="#b8b9c4"/>
      <ellipse id="Ellipse_81" data-name="Ellipse 81" cx="1.53" cy="1.53" rx="1.53" ry="1.53" transform="translate(6.099 33.752)" fill="#b8b9c4"/>
    </g>
  </g>
</svg>
