<svg xmlns="http://www.w3.org/2000/svg" width="55" height="55" viewBox="0 0 55 55">
  <g id="youtube" transform="translate(-1410 -10065.5)">
    <rect id="Rectangle_99" data-name="Rectangle 99" width="55" height="55" rx="27.5" transform="translate(1410 10065.5)" fill="#edeef1"/>
    <g id="XMLID_822_" transform="translate(1426 10038.583)">
      <path id="XMLID_823_" d="M23.065,47.367c-.866-1.03-2.466-1.45-5.52-1.45H6.456c-3.125,0-4.751.447-5.614,1.544C0,48.53,0,50.1,0,52.285V56.44c0,4.223,1,6.368,6.456,6.368H17.544c2.649,0,4.117-.371,5.066-1.28C23.584,60.6,24,59.074,24,56.44V52.285C24,49.986,23.935,48.4,23.065,47.367Zm-7.656,7.569-5.035,2.632a.774.774,0,0,1-1.133-.686V51.635a.774.774,0,0,1,1.131-.687l5.035,2.615a.774.774,0,0,1,0,1.373Z" fill="#3a486a"/>
    </g>
  </g>
</svg>
